# xmcd
#
# Track frame offsets: 
#        150
#        13518
#        26418
#        39366
#        50293
#        61332
#        72995
#        82696
#        93272
#        104207
#        116487
#        127777
#        136779
#        148789
#        161948
#        171958
#        183109
#        194999
#        203829
#        216760
#        229847
#        239380
#        251338
#        263988
#        277444
#        288101
#        301401
#        314654
#
# Disc length: 4317 seconds
#
# Revision: 0
# Processed by: cddbd v1.4PL0 Copyright (c) Steve Scherf et al.
# Submitted via: ExactAudioCopy v0.90b3
#
DISCID=9c10db1c
DTITLE=Tammy Wynette - Strait From The Heart
DYEAR=1900
DGENRE=Country
TTITLE0=Baby Come Home
TTITLE1=When Love Was All We Had
TTITLE2=Clinging Vine
TTITLE3=The Ways To Love A Man
TTITLE4=If You Love Him, Love Him Right
TTITLE5=Tell Me Where I Stand
TTITLE6=I'll Kiss The Baby
TTITLE7=The Two Of Us
TTITLE8=Too Many Daddy's
TTITLE9=We Sure Can Love Each Other
TTITLE10=(Or) Is It Love
TTITLE11=A Lighter Shade Of Blue
TTITLE12=Cry, Cry Again
TTITLE13=D-I-V-O-R-C-E
TTITLE14=Don't Make Me Now
TTITLE15=Good Lovin'
TTITLE16=He Loves Me All The Way
TTITLE17=I Stayed Long Enough
TTITLE18=I'll See Him Through
TTITLE19=Kids Say The Darndest Things
TTITLE20=My Arms Stay Open Late
TTITLE21=Stand By Your Man
TTITLE22=Take Me To Your World
TTITLE23=Walk Softly On The Bridges
TTITLE24=Singing My Song
TTITLE25=The Divorce Sale
TTITLE26=Things I Love To Do
TTITLE27=Your Good Girl's Gonna Go Bad
EXTD=
EXTT0=
EXTT1=
EXTT2=
EXTT3=
EXTT4=
EXTT5=
EXTT6=
EXTT7=
EXTT8=
EXTT9=
EXTT10=
EXTT11=
EXTT12=
EXTT13=
EXTT14=
EXTT15=
EXTT16=
EXTT17=
EXTT18=
EXTT19=
EXTT20=
EXTT21=
EXTT22=
EXTT23=
EXTT24=
EXTT25=
EXTT26=
EXTT27=
PLAYORDER=
